<svg xmlns="http://www.w3.org/2000/svg" viewBox="0 0 2032.33 815.27"><g data-name="Camada 2"><path d="M1282.64 647.26q17.27 0 29.35 5.33t18.12 14.41a62.65 62.65 0 018.49 17.84 68.8 68.8 0 012.44 18.55v101.75a6.67 6.67 0 01-6.67 6.68h-26.93a6.68 6.68 0 01-6.67-6.68v-85.09q0-17.26-6.48-26.32t-18.55-9.07q-15.54 0-23.59 13.09t-8.05 32.37v75a6.68 6.68 0 01-6.68 6.68h-26.93a6.68 6.68 0 01-6.67-6.68v-85.36q0-35.1-24.74-35.1-15.82 0-24 13.09t-8.2 32.37v75a6.68 6.68 0 01-6.67 6.68h-26.93a6.68 6.68 0 01-6.68-6.68V657.39a6.67 6.67 0 016.68-6.67h19.15a7.86 7.86 0 017.81 6.91L1142 672h1.15q8.06-12.66 18.56-18.7t26.89-6q31.65 0 44.88 28.19h.86a52.14 52.14 0 0119.66-20.6 54.9 54.9 0 0128.62-7.63M1482.58 607q27.9 0 46.75 13.38 16 11.37 25 25.31a7.22 7.22 0 01-1.06 9.05l-22.94 22.63a4.67 4.67 0 01-7.4-1.11q-15.15-29-40.39-29-22.74 0-36.83 18.5t-14.09 46.53q0 26.3 12.8 44.5t36.68 18.2q32 0 45.25-37.6a4.67 4.67 0 017.18-2.14l27.67 20.53a7.26 7.26 0 012.39 8.66q-9.06 20.94-29.13 35-22.59 15.82-54.22 15.82a95.88 95.88 0 01-35.1-6.17q-15.83-6.17-26.18-16.2a91.13 91.13 0 01-17.4-23.53 108.58 108.58 0 01-10.04-27.36 133 133 0 01-3-28.26q0-43.85 26.32-75.29t67.74-31.45M1649 647.27q28.92 0 47.33 16.25t18.41 45.88v95.36a7.06 7.06 0 01-7 7.06h-19.14a7.4 7.4 0 01-7.25-6l-3-15.31h-.89q-13.77 24.75-47 24.74-24.86 0-37.57-11.93t-12.72-32.92q0-19.5 11.68-32.27t38.61-18.5q27.75-6 35.77-9.6t8-10.19a14.13 14.13 0 00-6.44-12q-6.43-4.59-19-4.6a43.21 43.21 0 00-25.12 8.18 58.05 58.05 0 00-15.94 16.85 4 4 0 01-6.62.08L1585.44 685a7.46 7.46 0 01.35-8.82A75.29 75.29 0 011610.9 656a83.53 83.53 0 0138.09-8.7m25.47 93.86a2.61 2.61 0 00-4-2.25c-4.4 2.68-12.91 6.78-27.79 10.32q-12.6 2.87-17.46 7a13.19 13.19 0 00-4.87 10.47q0 12.62 17.17 12.62 15.18 0 26-7.75t10.88-18.35zm292.13-93.89q28.92 0 47.33 16.25t18.41 45.88v95.36a7.06 7.06 0 01-7.06 7.06h-19.13a7.4 7.4 0 01-7.25-6l-3-15.31h-.89q-13.77 24.75-47 24.74-24.85 0-37.57-11.93t-12.72-32.92q0-19.5 11.68-32.27t38.61-18.5q27.75-6 35.76-9.6t8-10.19a14.13 14.13 0 00-6.44-12q-6.45-4.59-19-4.6a43.21 43.21 0 00-25.12 8.18 57.92 57.92 0 00-15.94 16.85 4 4 0 01-6.63.08L1903 685a7.46 7.46 0 01.34-8.82A75.43 75.43 0 011928.5 656a83.5 83.5 0 0138.09-8.7m25.47 93.86a2.62 2.62 0 00-4-2.25c-4.39 2.68-12.9 6.78-27.79 10.32q-12.58 2.87-17.45 7a13.19 13.19 0 00-4.87 10.47q0 12.62 17.17 12.62 15.16 0 26-7.75t10.88-18.35zm-185.96-93.9q21.81 0 39.16 9.5 14.1 7.71 22.43 16a6.81 6.81 0 011.19 8.12L1856 704.3a4.53 4.53 0 01-7.33.8q-19.91-21.87-41.67-21.88-10.31 0-15.74 4.18t-5.43 9.92a10.76 10.76 0 005.29 9.49q5.3 3.47 25.6 8.35 32.11 7.77 46.35 18.7t14.24 33.08q0 21.87-18.09 35.1t-45.07 13.23q-42.48 0-68.76-24.78a6.77 6.77 0 01-1.27-8.16l13.22-24.33a4.52 4.52 0 017-1.17q23.33 21.06 46.91 21.06 25.74 0 25.74-13.23 0-5.76-6.43-9.21t-28.46-8.63q-28.85-6.62-42.71-18.7t-13.88-31.64q0-20.72 16.33-35t44.26-14.24M944.05 671q21.57-23.76 54.37-23.76t54.66 23.45q21.86 23.44 21.86 60.84l-.17 6.73a4.9 4.9 0 01-4.91 4.78h-101.1a3 3 0 00-3 3.25A32.23 32.23 0 00976.27 768q10.63 9.91 25.89 9.92a49.14 49.14 0 0026.18-7.62c5.18-3.2 11.81-9.26 16-13.32a4.36 4.36 0 016.88 1.09l13.25 24.84a7.76 7.76 0 01-1.25 9q-6.82 7.17-20.08 14.18-17.4 9.21-41 9.21-35.1 0-57.39-22.42T922.47 733q0-38.25 21.58-62m78.82 23.27q-8.93-9.63-23.3-9.63T976.84 694a45.09 45.09 0 00-9.41 15.77 3.4 3.4 0 003.19 4.54h58.22a3.4 3.4 0 003.29-4.27q-2.19-8.12-9.26-15.73M1004 334.28q27.62 0 48.33 12.4 17 10.2 25.67 21.85a9.11 9.11 0 01.56 10l-14.41 24.88a5.19 5.19 0 01-8.46.76c-5-6-13.14-15.07-19.33-19.42a54.56 54.56 0 00-32.08-10.22q-12.07 0-18.84 5.32t-6.76 14.53a15.86 15.86 0 002.45 8.92c1.62 2.49 5 4.85 10.21 7.05s8.82 3.64 10.93 4.31 7.29 2.07 15.54 4.17c1.33.39 2.3.68 2.87.87q35.39 9.21 52.22 22.58t16.82 40.72q0 27.35-19.56 43.45t-53.5 16.1q-31.36 0-53.51-12.34-18.46-10.27-28.73-21.21a8.4 8.4 0 01-1.49-9.31l13.27-28.33a5.57 5.57 0 019-1.55c6.19 6.26 16.31 16 23.77 21a67.9 67.9 0 0038.55 11.51q29.06 0 29-19.27 0-10.08-9.49-15.11t-36.53-12.22a195.49 195.49 0 01-26.9-8.49 91.46 91.46 0 01-20-11.36 42.45 42.45 0 01-13.66-17q-4.47-10.07-4.46-23.87 0-25.28 18.7-43t49.82-17.72m130.32 64.03q21.57-23.76 54.37-23.76t54.66 23.45q21.86 23.44 21.86 60.84l-.17 6.72a4.91 4.91 0 01-4.91 4.79H1159a3 3 0 00-3 3.25 32.18 32.18 0 0010.52 21.63q10.64 9.93 25.89 9.93a49.06 49.06 0 0026.18-7.63c5.18-3.19 11.81-9.25 16-13.31a4.36 4.36 0 016.88 1.08l13.25 24.85a7.76 7.76 0 01-1.25 9q-6.82 7.17-20.08 14.18-17.42 9.21-41 9.21-35.12 0-57.39-22.42t-22.3-59.83q0-38.25 21.58-62m78.82 23.26q-8.92-9.61-23.3-9.62t-22.73 9.32a44.85 44.85 0 00-9.37 15.75 3.4 3.4 0 003.19 4.54h58.22a3.41 3.41 0 003.29-4.28q-2.19-8.1-9.26-15.73m678.63-23.22q21.57-23.76 54.37-23.76T2000.8 398q21.85 23.44 21.86 60.84l-.16 6.72a4.91 4.91 0 01-4.91 4.79h-101.11a3 3 0 00-3 3.25 32.23 32.23 0 0010.52 21.63q10.63 9.93 25.89 9.93a49 49 0 0026.18-7.63c5.18-3.19 11.81-9.25 16-13.31a4.35 4.35 0 016.87 1.08l13.26 24.85a7.79 7.79 0 01-1.25 9q-6.84 7.17-20.09 14.18-17.4 9.21-41 9.21-35.1 0-57.39-22.42t-22.3-59.83q0-38.25 21.58-62m78.82 23.26q-8.91-9.61-23.3-9.62t-22.72 9.32a45 45 0 00-9.42 15.77 3.41 3.41 0 003.19 4.54h58.22a3.4 3.4 0 003.29-4.28q-2.19-8.1-9.26-15.73m-497.66-47q17.27 0 29.35 5.32t18.12 14.39a62.73 62.73 0 018.49 17.83 69.32 69.32 0 012.44 18.56v101.78a6.67 6.67 0 01-6.67 6.67h-26.93a6.67 6.67 0 01-6.67-6.67v-85.09q0-17.26-6.48-26.33T1466 412q-15.54 0-23.59 13.09t-8.05 32.36v75a6.67 6.67 0 01-6.68 6.67h-26.93a6.67 6.67 0 01-6.67-6.67v-85.4q0-35.1-24.74-35.1-15.82 0-24 13.09t-8.2 32.36v75a6.67 6.67 0 01-6.67 6.67h-26.93a6.67 6.67 0 01-6.68-6.67V384.68a6.68 6.68 0 016.68-6.68h19.15a7.87 7.87 0 017.81 6.92l1.75 14.37h1.15q8.05-12.65 18.56-18.7t26.89-6q31.65 0 44.88 28.19h.86a52.16 52.16 0 0119.71-20.57 55 55 0 0128.62-7.62m180.37-.04q30.2 0 49 24.17t18.84 60.7q0 36.52-18.41 59.84-17.62 22.29-47.09 23.25a56.55 56.55 0 01-26.89-5.58q-12.42-6.13-18.66-15.66H1609v64.38a6.68 6.68 0 01-6.67 6.68h-26.93a6.68 6.68 0 01-6.67-6.68v-201a6.68 6.68 0 016.67-6.68h19.15a7.87 7.87 0 017.81 6.92l1.75 14.37h.87q5.46-10.35 17.83-17.55t30.5-7.19m-8.64 37.4q-17.25 0-27.18 12.8t-9.93 34.67q0 21.29 10.22 33.51t26.89 12.23q16.11 0 26.18-13t10.07-32.79q0-19.86-9.78-33.66T1644.65 412m179.8-37.45q18.42 0 27.62 12.66l-6.33 38.26h-2q-8.36-10.64-22.73-10.64-27.9 0-27.9 42.28v75.32a6.67 6.67 0 01-6.68 6.67h-26.93a6.67 6.67 0 01-6.67-6.67V384.68a6.68 6.68 0 016.67-6.68h19.16a7.87 7.87 0 017.81 6.92l1.75 14.37h.86q11.22-24.74 35.38-24.74M813.7 329.07L438.61 9.31a39 39 0 00-50.61.07L9.14 333.77A26.13 26.13 0 000 353.63v435.49a26.15 26.15 0 0026.15 26.15h236.24a26.16 26.16 0 0026.15-27c-1.45-45.3-2.87-88.89-4-120.57-2.08-61.43 8-72.49 27-94.36 19.9-22.84 23.39-27.8 26-45.42l25.55-249.49c.56-5.57 3-10.71 12.44-10.71h77.24c9.47 0 11.89 5.14 12.44 10.71l25.56 249.49c2.58 17.62 6.06 22.58 26 45.42 19.05 21.87 29.1 32.93 27 94.36-1.08 31.68-2.49 75.27-3.94 120.57a26.15 26.15 0 0026.14 27h236.26a26.15 26.15 0 0026.15-26.15V360.89a41.85 41.85 0 00-14.68-31.82" fill="#150e6f" data-name="Layer 1"/></g></svg>